<?xml version="1.0" encoding="UTF-8" standalone="no"?>
<svg
   width="1024"
   height="1024"
   viewBox="0 0 1024 1024"
   role="img"
   aria-label="OrçaOS flat vector icon"
   version="1.1"
   xmlns:xlink="http://www.w3.org/1999/xlink"
   xmlns="http://www.w3.org/2000/svg">
  <defs>
    <linearGradient
       id="bg"
       x1="160"
       y1="96"
       x2="860"
       y2="930"
       gradientUnits="userSpaceOnUse">
      <stop offset="0" stop-color="#20272d"/>
      <stop offset="0.48" stop-color="#10181c"/>
      <stop offset="1" stop-color="#080d10"/>
    </linearGradient>
    <linearGradient
       id="teal"
       x1="350"
       y1="245"
       x2="705"
       y2="790"
       gradientUnits="userSpaceOnUse">
      <stop offset="0" stop-color="#18fff4"/>
      <stop offset="0.46" stop-color="#00d8d8"/>
      <stop offset="1" stop-color="#009aa6"/>
    </linearGradient>
    <linearGradient
       xlink:href="#teal"
       id="teal-shifted"
       gradientUnits="userSpaceOnUse"
       x1="350"
       y1="245"
       x2="705"
       y2="790"
       gradientTransform="translate(-5.5819488,-18.936079)" />
  </defs>
  <rect x="112" y="112" width="800" height="800" rx="180" fill="url(#bg)" />
  <path d="M 273.82,395.83 A 265,265 0 0 1 702.63,327.92" fill="none" stroke="url(#teal)" stroke-width="72" stroke-linecap="butt" stroke-linejoin="round" />
  <path d="M 731.69,363.81 A 265,265 0 0 1 702.63,696.08" fill="none" stroke="url(#teal)" stroke-width="72" stroke-linecap="butt" stroke-linejoin="round" />
  <path d="M 667.76,726.39 A 265,265 0 0 1 327.92,702.63" fill="none" stroke="url(#teal)" stroke-width="72" stroke-linecap="butt" stroke-linejoin="round" />
  <path d="M 297.61 667.76 A 265.00 265.00 0 0 1 257.27 438.96" fill="none" stroke="url(#teal)" stroke-width="72" stroke-linecap="butt" stroke-linejoin="round" />
  <rect x="223" y="484" width="54" height="24" rx="2" fill="url(#teal)" />
  <rect x="223" y="536" width="54" height="24" rx="2" fill="url(#teal)" />
  <path d="m 622.41805,373.06392 h -162 c -46,0 -74,29 -74,69 0,42 32,67 83,67 h 73 c 55,0 88,29 88,71 0,42 -32,71 -84,71 h -154" fill="none" stroke="url(#teal-shifted)" stroke-width="68" stroke-linecap="butt" stroke-linejoin="round" />
</svg>
